<svg width="42" height="34" viewBox="0 0 42 34" fill="none" xmlns="http://www.w3.org/2000/svg" xmlns:xlink="http://www.w3.org/1999/xlink">
<path d="M21.006,0.334C29.623,0.341 37.36,6.38 41.706,16.493C41.877,16.886 41.877,17.332 41.706,17.726C37.362,27.841 29.623,33.88 21.006,33.886L20.994,33.886C12.377,33.88 4.639,27.841 0.294,17.726C0.125,17.332 0.125,16.886 0.294,16.493C4.639,6.38 12.379,0.341 20.994,0.334L21.006,0.334ZM21,3.459C13.841,3.461 7.312,8.551 3.437,17.109C7.312,25.67 13.839,30.759 21,30.761C28.16,30.759 34.687,25.67 38.562,17.109C34.687,8.551 28.16,3.461 21,3.459ZM20.999,8.961C25.493,8.961 29.149,12.617 29.149,17.111C29.149,21.603 25.493,25.257 20.999,25.257C16.505,25.257 12.851,21.603 12.851,17.111C12.851,12.617 16.505,8.961 20.999,8.961ZM20.999,12.086C18.228,12.086 15.976,14.34 15.976,17.111C15.976,19.88 18.228,22.132 20.999,22.132C23.77,22.132 26.024,19.88 26.024,17.111C26.024,14.34 23.77,12.086 20.999,12.086Z" clip-rule="evenodd" fill-rule="evenodd" fill="#FFFFFF"/>
</svg>
