<svg width="74" height="74" viewBox="0 0 74 74" fill="none" xmlns="http://www.w3.org/2000/svg" xmlns:xlink="http://www.w3.org/1999/xlink">
<line x1="34.276" y1="9.608" x2="34.276" y2="48.491" stroke="#FFFFFF" stroke-width="3" stroke-miterlimit="3.999327" stroke-linecap="square"/>
<path d="M29.438,38.645L27.321,36.519L23.069,40.752L25.186,42.878L29.438,38.645ZM37.278,50.772L35.152,52.888L37.277,55.024L39.403,52.889L37.278,50.772ZM49.372,42.878L51.489,40.753L47.238,36.519L45.121,38.645L49.372,42.878ZM25.186,42.878L35.152,52.888L39.404,48.655L29.438,38.645L25.186,42.878ZM39.403,52.889L49.372,42.878L45.121,38.645L35.152,48.655L39.403,52.889Z" fill="#FFFFFF"/>
<path d="M51.351,25.647L48.351,25.647L48.351,31.647L51.351,31.647L51.351,25.647ZM65.426,28.647L68.426,28.647L68.426,25.647L65.426,25.647L65.426,28.647ZM65.426,63.426L65.426,66.426L68.426,66.426L68.426,63.426L65.426,63.426ZM9.129,63.426L6.129,63.426L6.129,66.426L9.129,66.426L9.129,63.426ZM9.129,28.647L9.129,25.647L6.129,25.647L6.129,28.647L9.129,28.647ZM23.203,31.647L26.203,31.647L26.203,25.647L23.203,25.647L23.203,31.647ZM51.351,31.647L65.426,31.647L65.426,25.647L51.351,25.647L51.351,31.647ZM62.426,28.647L62.426,63.426L68.426,63.426L68.426,28.647L62.426,28.647ZM65.426,60.426L9.129,60.426L9.129,66.426L65.426,66.426L65.426,60.426ZM12.129,63.426L12.129,28.647L6.129,28.647L6.129,63.426L12.129,63.426ZM9.129,31.647L23.203,31.647L23.203,25.647L9.129,25.647L9.129,31.647Z" fill="#FFFFFF"/>
</svg>
