<svg width="48" height="48" viewBox="0 0 48 48" fill="none" xmlns="http://www.w3.org/2000/svg" xmlns:xlink="http://www.w3.org/1999/xlink">
<line x1="8.059" y1="31.686" x2="20.66" y2="31.686" stroke="#FFFFFF" stroke-width="1.5" stroke-miterlimit="3.999327" stroke-linecap="round" stroke-linejoin="round"/>
<line x1="26.281" y1="12.301" x2="38.883" y2="12.301" stroke="#FFFFFF" stroke-width="1.5" stroke-miterlimit="3.999327" stroke-linecap="round" stroke-linejoin="round"/>
<path d="M12.726,7.5C11.898,7.5 11.226,8.172 11.226,9C11.226,9.828 11.898,10.5 12.726,10.5L12.726,7.5ZM9.5,13.692C9.5,12.864 8.828,12.192 8,12.192C7.172,12.192 6.5,12.864 6.5,13.692L9.5,13.692ZM12.726,10.5C14.518,10.5 15.953,11.94 15.953,13.692L18.953,13.692C18.953,10.263 16.155,7.5 12.726,7.5L12.726,10.5ZM15.953,13.692C15.953,15.445 14.518,16.885 12.726,16.885L12.726,19.885C16.155,19.885 18.953,17.122 18.953,13.692L15.953,13.692ZM12.726,16.885C10.935,16.885 9.5,15.445 9.5,13.692L6.5,13.692C6.5,17.122 9.298,19.885 12.726,19.885L12.726,16.885Z" fill="#FFFFFF"/>
<path d="M38.5,33.107C38.5,33.936 39.172,34.607 40,34.607C40.829,34.607 41.5,33.936 41.5,33.107L38.5,33.107ZM35.276,39.3C36.104,39.3 36.776,38.628 36.776,37.8C36.776,36.972 36.104,36.3 35.276,36.3L35.276,39.3ZM41.5,33.107C41.5,29.678 38.705,26.915 35.276,26.915L35.276,29.915C37.067,29.915 38.5,31.354 38.5,33.107L41.5,33.107ZM35.276,26.915C31.846,26.915 29.048,29.677 29.048,33.107L32.048,33.107C32.048,31.355 33.482,29.915 35.276,29.915L35.276,26.915ZM29.048,33.107C29.048,36.538 31.846,39.3 35.276,39.3L35.276,36.3C33.482,36.3 32.048,34.86 32.048,33.107L29.048,33.107Z" fill="#FFFFFF"/>
</svg>
