<svg width="126" height="126" viewBox="0 0 126 126" fill="none" xmlns="http://www.w3.org/2000/svg" xmlns:xlink="http://www.w3.org/1999/xlink">
<path d="M63,118.125C48.38,118.125 34.359,112.317 24.021,101.979C13.683,91.641 7.875,77.62 7.875,63C7.875,48.38 13.683,34.359 24.021,24.021C34.359,13.683 48.38,7.875 63,7.875C77.62,7.875 91.641,13.683 101.979,24.021C112.317,34.359 118.125,48.38 118.125,63C118.125,77.62 112.317,91.641 101.979,101.979C91.641,112.317 77.62,118.125 63,118.125ZM63,126C79.709,126 95.733,119.363 107.548,107.548C119.363,95.733 126,79.709 126,63C126,46.291 119.363,30.267 107.548,18.452C95.733,6.637 79.709,0 63,0C46.291,0 30.267,6.637 18.452,18.452C6.637,30.267 0,46.291 0,63C0,79.709 6.637,95.733 18.452,107.548C30.267,119.363 46.291,126 63,126Z" fill="#FFFFFF"/>
<path d="M53.794,90.011C56.715,88.807 59.841,88.181 63,88.169C70.214,88.169 75.655,91.382 80.719,94.673C82.388,95.76 84.058,94.13 82.939,92.492C78.498,85.956 70.67,76.356 63,76.356C58.826,76.356 54.605,79.199 50.904,82.845C51.566,84.263 52.175,85.667 52.731,87.058C53.093,87.972 53.448,88.951 53.794,89.996L53.794,90.011ZM47.25,89.247C47.25,96.492 41.958,102.375 35.438,102.375C28.917,102.375 23.625,96.5 23.625,89.247C23.625,83.688 30.571,71.214 33.815,65.701C33.98,65.417 34.216,65.18 34.501,65.016C34.786,64.852 35.109,64.766 35.438,64.766C35.766,64.766 36.089,64.852 36.374,65.016C36.659,65.18 36.895,65.417 37.06,65.701C40.304,71.214 47.25,83.688 47.25,89.247ZM55.125,51.187C55.125,57.708 51.597,63 47.25,63C42.903,63 39.375,57.708 39.375,51.187C39.375,44.667 42.903,39.375 47.25,39.375C51.597,39.375 55.125,44.667 55.125,51.187ZM86.625,51.187C86.625,57.708 83.097,63 78.75,63C74.403,63 70.875,57.708 70.875,51.187C70.875,44.667 74.403,39.375 78.75,39.375C83.097,39.375 86.625,44.667 86.625,51.187ZM74.813,27.563C74.813,26.518 75.227,25.517 75.966,24.778C76.704,24.04 77.706,23.625 78.75,23.625C87.901,23.625 97.256,28.224 101.958,37.611C102.194,38.074 102.336,38.579 102.377,39.097C102.417,39.615 102.354,40.136 102.192,40.63C102.031,41.123 101.772,41.58 101.433,41.974C101.094,42.367 100.68,42.69 100.215,42.923C99.751,43.155 99.245,43.294 98.726,43.33C98.208,43.366 97.687,43.3 97.195,43.134C96.702,42.968 96.248,42.707 95.857,42.364C95.466,42.022 95.147,41.605 94.917,41.139C91.736,34.776 85.349,31.5 78.75,31.5C77.706,31.5 76.704,31.085 75.966,30.347C75.227,29.608 74.813,28.607 74.813,27.563ZM55.125,27.563C55.125,26.518 54.71,25.517 53.972,24.778C53.233,24.04 52.232,23.625 51.188,23.625C42.037,23.625 32.681,28.224 27.98,37.611C27.743,38.074 27.601,38.579 27.561,39.097C27.52,39.615 27.583,40.136 27.745,40.63C27.907,41.123 28.165,41.58 28.504,41.974C28.844,42.367 29.258,42.69 29.722,42.923C30.187,43.155 30.693,43.294 31.211,43.33C31.73,43.366 32.25,43.3 32.743,43.134C33.235,42.968 33.69,42.707 34.081,42.364C34.472,42.022 34.791,41.605 35.02,41.139C38.202,34.776 44.588,31.5 51.188,31.5C52.232,31.5 53.233,31.085 53.972,30.347C54.71,29.608 55.125,28.607 55.125,27.563Z" fill="#FFFFFF"/>
</svg>
