<svg width="84" height="84" viewBox="0 0 84 84" fill="none" xmlns="http://www.w3.org/2000/svg" xmlns:xlink="http://www.w3.org/1999/xlink">
<path d="M42.875,74.101L41.825,73.646C25.34,66.331 7.805,51.981 7.875,33.571C7.91,22.721 13.93,14.006 23.555,10.926C30.94,8.546 37.695,10.331 42.875,15.966C48.055,10.331 54.81,8.546 62.195,10.926C71.82,14.041 77.84,22.721 77.875,33.606C77.98,51.981 60.41,66.331 43.925,73.646L42.875,74.101ZM29.75,15.126C28.28,15.126 26.775,15.371 25.165,15.896C16.31,18.731 13.125,26.921 13.125,33.606C13.055,49.076 28.875,61.851 42.875,68.326C56.875,61.851 72.695,49.076 72.625,33.606C72.625,26.921 69.405,18.766 60.585,15.896C54.32,13.866 49.105,15.826 45.045,21.636L42.875,24.716L40.705,21.636C37.695,17.296 34.02,15.091 29.75,15.091L29.75,15.126Z" fill="#F6373F" stroke="#F6373F" stroke-width="1" stroke-miterlimit="3.999327"/>
<path d="M60.492,13.645C53.6,11.42 47.317,13.274 42.603,18.85C37.884,13.267 31.601,11.423 24.716,13.645C16.013,16.447 10.585,24.308 10.546,34.158C10.467,51.038 26.712,64.262 41.938,71.009L42.606,71.305L43.273,71.009C58.503,64.262 74.742,51.038 74.659,34.158C74.62,24.308 69.192,16.447 60.492,13.645Z" clip-rule="evenodd" fill-rule="evenodd" fill="#F6373F"/>
</svg>
