<svg width="30" height="30" viewBox="0 0 30 30" fill="none" xmlns="http://www.w3.org/2000/svg" xmlns:xlink="http://www.w3.org/1999/xlink">
<path d="M21.75,13.75C21.75,18.168 18.168,21.75 13.75,21.75L13.75,25.75C20.377,25.75 25.75,20.377 25.75,13.75L21.75,13.75ZM13.75,21.75C9.332,21.75 5.75,18.168 5.75,13.75L1.75,13.75C1.75,20.377 7.123,25.75 13.75,25.75L13.75,21.75ZM5.75,13.75C5.75,9.332 9.332,5.75 13.75,5.75L13.75,1.75C7.123,1.75 1.75,7.123 1.75,13.75L5.75,13.75ZM13.75,5.75C18.168,5.75 21.75,9.332 21.75,13.75L25.75,13.75C25.75,7.123 20.377,1.75 13.75,1.75L13.75,5.75Z" fill="#515068"/>
<path d="M24.836,27.664C25.617,28.445 26.883,28.445 27.664,27.664C28.445,26.883 28.445,25.617 27.664,24.836L24.836,27.664ZM22.227,19.398C21.446,18.617 20.179,18.617 19.398,19.398C18.617,20.179 18.617,21.446 19.398,22.227L22.227,19.398ZM27.664,24.836L22.227,19.398L19.398,22.227L24.836,27.664L27.664,24.836Z" fill="#515068"/>
</svg>
