<svg width="74" height="70" viewBox="0 0 74 70" fill="none" xmlns="http://www.w3.org/2000/svg" xmlns:xlink="http://www.w3.org/1999/xlink">
<g opacity="0.4">
<path d="M49.862,24.186C51.072,23.055 51.135,21.156 50.003,19.946C48.871,18.736 46.973,18.673 45.763,19.805L49.862,24.186ZM28.049,36.376C26.839,37.507 26.776,39.406 27.908,40.616C29.04,41.826 30.938,41.889 32.148,40.757L28.049,36.376ZM45.763,19.805L28.049,36.376L32.148,40.757L49.862,24.186L45.763,19.805Z" fill="#FFF3F3"/>
</g>
<path d="M30.099,38.567L32.615,36.933C32.355,36.532 32.003,36.2 31.589,35.963L30.099,38.567ZM9.361,26.705L10.851,24.101L10.851,24.101L9.361,26.705ZM10.256,20.488L9.473,17.592L9.472,17.592L10.256,20.488ZM59.218,7.256L60.001,10.152L60.003,10.152L59.218,7.256ZM63.743,11.529L60.887,10.612L60.886,10.616L63.743,11.529ZM49.216,56.974L46.358,56.061L46.358,56.061L49.216,56.974ZM42.576,57.771L45.092,56.137L45.092,56.137L42.576,57.771ZM31.589,35.963L10.851,24.101L7.871,29.309L28.61,41.171L31.589,35.963ZM10.851,24.101C10.686,24.007 10.643,23.926 10.63,23.9C10.612,23.862 10.602,23.812 10.611,23.751C10.62,23.69 10.647,23.626 10.696,23.571C10.737,23.523 10.83,23.44 11.039,23.384L9.472,17.592C3.983,19.077 2.695,26.348 7.872,29.309L10.851,24.101ZM11.038,23.384L60.001,10.152L58.436,4.36L9.473,17.592L11.038,23.384ZM60.003,10.152C60.343,10.06 60.615,10.164 60.778,10.317C60.858,10.393 60.888,10.46 60.897,10.491C60.902,10.51 60.91,10.539 60.887,10.612L66.6,12.446C68.291,7.179 63.09,3.099 58.434,4.361L60.003,10.152ZM60.886,10.616L46.358,56.061L52.073,57.887L66.601,12.443L60.886,10.616ZM46.358,56.061C46.328,56.155 46.283,56.213 46.214,56.266C46.131,56.329 45.995,56.392 45.816,56.414C45.436,56.459 45.202,56.307 45.092,56.137L40.06,59.405C43.017,63.957 50.354,63.268 52.073,57.887L46.358,56.061ZM45.092,56.137L32.615,36.933L27.584,40.202L40.06,59.405L45.092,56.137Z" fill="#FFFFFF"/>
</svg>
