<svg width="26" height="16" viewBox="0 0 26 16" fill="none" xmlns="http://www.w3.org/2000/svg" xmlns:xlink="http://www.w3.org/1999/xlink">
<path d="M25.144,2.519C25.73,1.933 25.73,0.984 25.144,0.398C24.558,-0.188 23.609,-0.188 23.023,0.398L25.144,2.519ZM13,12.542L11.939,13.602C12.525,14.188 13.475,14.188 14.061,13.602L13,12.542ZM2.977,0.398C2.392,-0.188 1.442,-0.188 0.856,0.398C0.27,0.984 0.27,1.933 0.856,2.519L2.977,0.398ZM23.023,0.398L11.939,11.481L14.061,13.602L25.144,2.519L23.023,0.398ZM14.061,11.481L2.977,0.398L0.856,2.519L11.939,13.602L14.061,11.481Z" transform="rotate(-180 13 7)" fill="#FFFFFF"/>
</svg>
