<svg width="64" height="58" viewBox="0 0 64 58" fill="none" xmlns="http://www.w3.org/2000/svg" xmlns:xlink="http://www.w3.org/1999/xlink">
<path d="M31.771,57.279L30.846,56.879C16.323,50.434 0.876,37.793 0.937,21.574C0.968,12.016 6.271,4.338 14.751,1.625C21.257,-0.472 27.207,1.101 31.771,6.065C36.334,1.101 42.285,-0.472 48.791,1.625C57.27,4.369 62.573,12.016 62.604,21.605C62.696,37.793 47.218,50.434 32.696,56.879L31.771,57.279ZM20.208,5.325C18.913,5.325 17.587,5.541 16.169,6.003C8.368,8.501 5.562,15.716 5.562,21.605C5.501,35.234 19.437,46.488 31.771,52.192C44.104,46.488 58.041,35.234 57.979,21.605C57.979,15.716 55.142,8.532 47.372,6.003C41.853,4.215 37.259,5.942 33.682,11.06L31.771,13.773L29.859,11.06C27.207,7.237 23.97,5.294 20.208,5.294L20.208,5.325Z" fill="#FFFFFF" stroke="#FFFFFF" stroke-width="1" stroke-miterlimit="3.999327"/>
</svg>
