<svg width="70" height="64" viewBox="0 0 70 64" fill="none" xmlns="http://www.w3.org/2000/svg" xmlns:xlink="http://www.w3.org/1999/xlink">
<path d="M34.087,62.74L33.056,62.293C16.874,55.112 -0.339,41.026 -0.27,22.954C-0.236,12.303 5.674,3.749 15.122,0.725C22.371,-1.611 29.002,0.141 34.087,5.673C39.172,0.141 45.803,-1.611 53.052,0.725C62.5,3.783 68.41,12.303 68.444,22.988C68.547,41.026 51.3,55.112 35.118,62.293L34.087,62.74ZM21.203,4.848C19.76,4.848 18.283,5.088 16.702,5.604C8.01,8.387 4.884,16.426 4.884,22.988C4.815,38.174 20.344,50.715 34.087,57.071C47.83,50.715 63.359,38.174 63.29,22.988C63.29,16.426 60.13,8.421 51.472,5.604C45.322,3.611 40.203,5.535 36.217,11.238L34.087,14.262L31.957,11.238C29.002,6.978 25.395,4.814 21.203,4.814L21.203,4.848Z" fill="#F6373F" stroke="#F6373F" stroke-width="1" stroke-miterlimit="3.999327"/>
</svg>
