<svg width="132" height="132" viewBox="0 0 132 132" fill="none" xmlns="http://www.w3.org/2000/svg" xmlns:xlink="http://www.w3.org/1999/xlink">
<path d="M111.5,53C111.5,61.97 97.72,69.25 88.75,69.25C79.78,69.25 70.875,61.97 70.875,53L61.125,53C61.125,61.97 52.22,69.25 43.25,69.25C34.28,69.25 20.5,61.97 20.5,53L15.625,53C14.585,57.16 14,61.515 14,66C14,79.791 19.479,93.018 29.23,102.77C38.982,112.521 52.209,118 66,118C79.791,118 93.018,112.521 102.77,102.77C112.521,93.018 118,79.791 118,66C118,61.515 117.415,57.16 116.375,53L111.5,53ZM66,14C46.76,14 29.925,24.465 20.955,40L111.045,40C102.075,24.465 85.24,14 66,14ZM131,66C131,83.239 124.152,99.772 111.962,111.962C99.772,124.152 83.239,131 66,131C57.464,131 49.012,129.319 41.126,126.052C33.239,122.786 26.074,117.998 20.038,111.962C7.848,99.772 1,83.239 1,66C1,48.761 7.848,32.228 20.038,20.038C32.228,7.848 48.761,1 66,1C74.536,1 82.988,2.681 90.874,5.948C98.761,9.214 105.926,14.002 111.962,20.038C117.998,26.074 122.786,33.239 126.052,41.126C129.319,49.012 131,57.464 131,66ZM66,99.995C54.625,99.995 44.615,95.25 38.765,88.23L47.995,79C50.92,83.68 57.875,86.995 66,86.995C74.125,86.995 81.08,83.68 84.005,79L93.235,88.23C87.385,95.25 77.375,99.995 66,99.995Z" fill="#FFFFFF"/>
</svg>
