<svg width="52" height="52" viewBox="0 0 52 52" fill="none" xmlns="http://www.w3.org/2000/svg" xmlns:xlink="http://www.w3.org/1999/xlink">
<path d="M37.038,-0.833C45.822,-0.833 50.833,4.127 50.833,12.936L50.833,37.064C50.833,45.822 45.847,50.833 37.064,50.833L12.936,50.833C4.127,50.833 -0.833,45.822 -0.833,37.064L-0.833,12.936C-0.833,4.127 4.127,-0.833 12.936,-0.833L37.038,-0.833ZM24.974,13.401C23.786,13.401 22.83,14.357 22.83,15.545L22.83,22.83L15.519,22.83C14.951,22.83 14.408,23.063 13.995,23.45C13.607,23.863 13.375,24.403 13.375,24.974C13.375,26.163 14.331,27.118 15.519,27.144L22.83,27.144L22.83,34.455C22.83,35.643 23.786,36.599 24.974,36.599C26.162,36.599 27.118,35.643 27.118,34.455L27.118,27.144L34.455,27.144C35.643,27.118 36.599,26.163 36.599,24.974C36.599,23.786 35.643,22.83 34.455,22.83L27.118,22.83L27.118,15.545C27.118,14.357 26.162,13.401 24.974,13.401Z" fill="#FFFFFF"/>
</svg>
