<svg width="128" height="128" viewBox="0 0 128 128" fill="none" xmlns="http://www.w3.org/2000/svg" xmlns:xlink="http://www.w3.org/1999/xlink">
<path d="M51.15,51.15C51.15,52.521 50.792,53.868 50.113,55.059C49.435,56.25 48.457,57.244 47.278,57.943C46.099,58.642 44.758,59.022 43.387,59.046C42.016,59.07 40.663,58.737 39.46,58.079C38.257,57.421 37.246,56.462 36.526,55.295C35.807,54.128 35.403,52.794 35.355,51.424C35.307,50.054 35.616,48.695 36.252,47.481C36.889,46.266 37.83,45.239 38.984,44.498L29.37,38.731C28.513,38.173 27.906,37.305 27.676,36.309C27.446,35.313 27.611,34.266 28.137,33.389C28.663,32.512 29.509,31.874 30.496,31.607C31.483,31.341 32.535,31.468 33.43,31.961L53.196,43.811C53.943,44.254 54.523,44.93 54.846,45.736C55.17,46.542 55.219,47.431 54.986,48.268C54.753,49.104 54.251,49.84 53.558,50.363C52.864,50.885 52.018,51.165 51.15,51.158M90.65,51.158C90.65,53.253 89.818,55.263 88.336,56.744C86.855,58.226 84.845,59.058 82.75,59.058C80.655,59.058 78.645,58.226 77.164,56.744C75.682,55.263 74.85,53.253 74.85,51.158C73.986,51.156 73.147,50.872 72.46,50.348C71.774,49.824 71.278,49.09 71.048,48.257C70.819,47.425 70.869,46.54 71.19,45.738C71.511,44.937 72.087,44.262 72.828,43.819L92.57,31.969C93.015,31.702 93.508,31.526 94.021,31.45C94.534,31.374 95.058,31.4 95.561,31.526C96.064,31.652 96.538,31.876 96.954,32.185C97.371,32.494 97.722,32.883 97.989,33.328C98.256,33.773 98.432,34.266 98.508,34.779C98.584,35.292 98.558,35.815 98.432,36.319C98.306,36.822 98.082,37.295 97.773,37.712C97.464,38.129 97.075,38.48 96.63,38.747L87.024,44.514C88.136,45.229 89.051,46.213 89.684,47.373C90.318,48.534 90.65,49.835 90.65,51.158ZM91.14,89.789C90.326,90.439 89.289,90.742 88.253,90.631C87.217,90.52 86.267,90.004 85.61,89.196L85.586,89.173L85.404,88.975C85.116,88.668 84.816,88.373 84.504,88.09C83.275,86.979 81.932,85.999 80.499,85.167C76.857,83.034 71.121,80.783 63.016,80.783C54.91,80.783 49.167,83.027 45.509,85.175C44.073,86.006 42.728,86.986 41.496,88.098C41.115,88.441 40.752,88.802 40.406,89.181L40.382,89.204C40.056,89.607 39.653,89.942 39.196,90.189C38.74,90.437 38.24,90.592 37.724,90.646C37.208,90.7 36.686,90.651 36.189,90.504C35.691,90.356 35.228,90.112 34.825,89.785C34.422,89.458 34.087,89.055 33.84,88.599C33.592,88.143 33.437,87.642 33.383,87.126C33.329,86.61 33.378,86.089 33.525,85.591C33.673,85.094 33.917,84.63 34.244,84.227L34.26,84.219L34.276,84.204L34.315,84.156L34.426,84.014L34.813,83.587C35.129,83.24 35.587,82.792 36.187,82.244C37.388,81.154 39.15,79.756 41.512,78.365C46.252,75.577 53.362,72.883 63.016,72.883C72.67,72.883 79.764,75.569 84.504,78.365C86.874,79.756 88.628,81.154 89.821,82.237C90.436,82.8 91.022,83.396 91.574,84.022L91.693,84.156L91.732,84.204L91.748,84.227C91.748,84.235 91.756,84.243 88.675,86.708L91.756,84.243C92.409,85.061 92.71,86.104 92.595,87.143C92.479,88.183 91.956,89.135 91.14,89.789ZM63,-0.2C46.238,-0.2 30.163,6.459 18.311,18.311C6.459,30.163 -0.2,46.238 -0.2,63C-0.2,79.762 6.459,95.837 18.311,107.689C30.163,119.541 46.238,126.2 63,126.2C79.762,126.2 95.837,119.541 107.689,107.689C119.541,95.837 126.2,79.762 126.2,63C126.2,46.238 119.541,30.163 107.689,18.311C95.837,6.459 79.762,-0.2 63,-0.2ZM7.7,63C7.7,55.738 9.13,48.547 11.909,41.838C14.689,35.128 18.762,29.032 23.897,23.897C29.032,18.762 35.128,14.689 41.838,11.909C48.547,9.13 55.738,7.7 63,7.7C70.262,7.7 77.453,9.13 84.162,11.909C90.872,14.689 96.968,18.762 102.103,23.897C107.238,29.032 111.311,35.128 114.091,41.838C116.87,48.547 118.3,55.738 118.3,63C118.3,77.666 112.474,91.732 102.103,102.103C91.732,112.474 77.666,118.3 63,118.3C48.334,118.3 34.268,112.474 23.897,102.103C13.526,91.732 7.7,77.666 7.7,63Z" fill="#FFFFFF"/>
</svg>
