<svg width="118" height="118" viewBox="0 0 118 118" fill="none" xmlns="http://www.w3.org/2000/svg" xmlns:xlink="http://www.w3.org/1999/xlink">
<path d="M58,-0.333C90.217,-0.333 116.333,25.782 116.333,58C116.333,90.217 90.217,116.333 58,116.333C25.782,116.333 -0.333,90.217 -0.333,58C-0.333,25.782 25.782,-0.333 58,-0.333ZM58,11.333C45.623,11.333 33.753,16.25 25.002,25.002C16.25,33.753 11.333,45.623 11.333,58C11.333,70.377 16.25,82.247 25.002,90.998C33.753,99.75 45.623,104.667 58,104.667C70.377,104.667 82.247,99.75 90.998,90.998C99.75,82.247 104.667,70.377 104.667,58C104.667,45.623 99.75,33.753 90.998,25.002C82.247,16.25 70.377,11.333 58,11.333ZM76.474,58C82.377,58 87.167,62.783 87.167,68.692L87.167,69.667C87.167,77.402 84.094,84.821 78.624,90.291C73.154,95.76 65.735,98.833 58,98.833C50.264,98.833 42.846,95.76 37.376,90.291C31.906,84.821 28.833,77.402 28.833,69.667L28.833,68.692C28.833,62.789 33.617,58 39.526,58L76.474,58ZM75.5,69.667L40.5,69.667C40.5,74.308 42.344,78.759 45.626,82.041C48.907,85.323 53.359,87.167 58,87.167C62.641,87.167 67.092,85.323 70.374,82.041C73.656,78.759 75.5,74.308 75.5,69.667ZM40.5,28.833C41.929,28.833 43.308,29.358 44.375,30.307C45.443,31.257 46.125,32.565 46.292,33.984L46.333,34.667L46.333,46.333C46.332,47.82 45.762,49.25 44.742,50.331C43.721,51.412 42.326,52.063 40.842,52.15C39.358,52.237 37.896,51.754 36.756,50.8C35.616,49.846 34.883,48.492 34.707,47.016L34.667,46.333L34.667,34.667C34.667,33.12 35.281,31.636 36.375,30.542C37.469,29.448 38.953,28.833 40.5,28.833ZM71.376,30.542C72.426,29.496 73.834,28.889 75.316,28.844C76.797,28.798 78.24,29.319 79.352,30.299C80.463,31.279 81.16,32.646 81.301,34.121C81.441,35.596 81.015,37.07 80.108,38.242L79.624,38.791L77.915,40.5L79.624,42.209C80.67,43.259 81.278,44.667 81.323,46.149C81.368,47.63 80.848,49.073 79.868,50.185C78.887,51.297 77.521,51.993 76.045,52.134C74.57,52.274 73.097,51.848 71.924,50.942L71.376,50.457L65.542,44.624C64.538,43.62 63.935,42.283 63.846,40.866C63.756,39.448 64.188,38.046 65.058,36.924L65.542,36.376L71.376,30.542Z" fill="#FFFFFF"/>
</svg>
