<svg width="122" height="122" viewBox="0 0 122 122" fill="none" xmlns="http://www.w3.org/2000/svg" xmlns:xlink="http://www.w3.org/1999/xlink">
<path d="M61,94.458C75.174,94.458 87.158,85.577 92.086,73.167L29.914,73.167C34.781,85.577 46.826,94.458 61,94.458ZM39.708,54.917C42.128,54.917 44.449,53.955 46.161,52.244C47.872,50.533 48.833,48.212 48.833,45.792C48.833,43.371 47.872,41.051 46.161,39.339C44.449,37.628 42.128,36.667 39.708,36.667C37.288,36.667 34.967,37.628 33.256,39.339C31.545,41.051 30.583,43.371 30.583,45.792C30.583,48.212 31.545,50.533 33.256,52.244C34.967,53.955 37.288,54.917 39.708,54.917ZM82.292,54.917C84.712,54.917 87.033,53.955 88.744,52.244C90.455,50.533 91.417,48.212 91.417,45.792C91.417,43.371 90.455,41.051 88.744,39.339C87.033,37.628 84.712,36.667 82.292,36.667C79.871,36.667 77.551,37.628 75.839,39.339C74.128,41.051 73.167,43.371 73.167,45.792C73.167,48.212 74.128,50.533 75.839,52.244C77.551,53.955 79.871,54.917 82.292,54.917ZM61,109.667C48.093,109.667 35.714,104.539 26.587,95.412C17.461,86.286 12.333,73.907 12.333,61C12.333,48.093 17.461,35.714 26.587,26.587C35.714,17.461 48.093,12.333 61,12.333C73.907,12.333 86.286,17.461 95.412,26.587C104.539,35.714 109.667,48.093 109.667,61C109.667,73.907 104.539,86.286 95.412,95.412C86.286,104.539 73.907,109.667 61,109.667ZM61,0.167C27.359,0.167 0.167,27.542 0.167,61C0.167,77.134 6.576,92.607 17.984,104.016C23.633,109.664 30.339,114.145 37.72,117.203C45.101,120.26 53.011,121.833 61,121.833C77.134,121.833 92.607,115.424 104.016,104.016C115.424,92.607 121.833,77.134 121.833,61C121.833,53.011 120.26,45.101 117.203,37.72C114.145,30.339 109.664,23.633 104.016,17.984C98.367,12.335 91.66,7.855 84.28,4.797C76.899,1.74 68.989,0.167 61,0.167Z" fill="#FFFFFF"/>
</svg>
