<svg width="120" height="120" viewBox="0 0 120 120" fill="none" xmlns="http://www.w3.org/2000/svg" xmlns:xlink="http://www.w3.org/1999/xlink">
<path d="M106.333,59C106.333,46.446 101.347,34.407 92.47,25.53C83.593,16.654 71.554,11.667 59,11.667C46.446,11.667 34.407,16.654 25.53,25.53C16.654,34.407 11.667,46.446 11.667,59C11.667,71.554 16.654,83.593 25.53,92.47C34.407,101.347 46.446,106.333 59,106.333C71.554,106.333 83.593,101.347 92.47,92.47C101.347,83.593 106.333,71.554 106.333,59ZM118.167,59C118.167,74.692 111.933,89.741 100.837,100.837C89.741,111.933 74.692,118.167 59,118.167C51.23,118.167 43.536,116.636 36.358,113.663C29.18,110.69 22.657,106.331 17.163,100.837C6.067,89.741 -0.167,74.692 -0.167,59C-0.167,43.308 6.067,28.259 17.163,17.163C28.259,6.067 43.308,-0.167 59,-0.167C66.77,-0.167 74.464,1.364 81.642,4.337C88.821,7.311 95.343,11.669 100.837,17.163C106.331,22.657 110.69,29.18 113.663,36.358C116.636,43.536 118.167,51.23 118.167,59ZM79.708,35.333C84.442,35.333 88.583,39.475 88.583,44.208C88.583,48.942 84.442,53.083 79.708,53.083C74.975,53.083 70.833,48.942 70.833,44.208C70.833,39.475 74.975,35.333 79.708,35.333ZM47.167,44.208C47.167,48.942 43.025,53.083 38.292,53.083C33.558,53.083 29.417,48.942 29.417,44.208C29.417,39.475 33.558,35.333 38.292,35.333C43.025,35.333 47.167,39.475 47.167,44.208ZM59,70.833C69.354,70.833 78.466,75.093 83.791,81.543L75.389,89.944C72.727,85.625 66.396,82.667 59,82.667C51.604,82.667 45.273,85.625 42.611,89.944L34.209,81.543C39.534,75.093 48.646,70.833 59,70.833Z" fill="#FFFFFF"/>
</svg>
